/* XPM */
static char *result[] = {
/* columns rows colors chars-per-pixel */
"35 35 157 2 ",
"   c black",
".  c #130000",
"X  c #230200",
"o  c #280600",
"O  c #290A00",
"+  c #221000",
"@  c #2B1807",
"#  c #2B160A",
"$  c #28190A",
"%  c #331B01",
"&  c #321E0E",
"*  c #271C13",
"=  c #2B1D14",
"-  c #39240B",
";  c #2E2117",
":  c #2E2319",
">  c #352214",
",  c #392614",
"<  c #3F2912",
"1  c #32251A",
"2  c #392519",
"3  c #36281D",
"4  c #3B2B1D",
"5  c #352B23",
"6  c #3D2E22",
"7  c #3F3023",
"8  c #37342F",
"9  c #3D3229",
"0  c #383733",
"q  c #3F3B33",
"w  c #3E3D3A",
"e  c #412F1F",
"r  c #402E20",
"t  c #433325",
"y  c #483626",
"u  c #493824",
"i  c #453629",
"p  c #483729",
"a  c #46382D",
"s  c #4A392B",
"d  c #453C33",
"f  c #4B3D32",
"g  c #413F3C",
"h  c #503E30",
"j  c #52432A",
"k  c #454037",
"l  c #4E4136",
"z  c #44413C",
"x  c #4A443B",
"c  c #4D493F",
"v  c #554334",
"b  c #574D32",
"n  c #5E4C32",
"m  c #52453A",
"M  c #554A3F",
"N  c #5E5233",
"B  c #625230",
"V  c #6E5C34",
"C  c #63563C",
"Z  c #695A3E",
"A  c #6C6039",
"S  c #746534",
"D  c #7A6E37",
"F  c #70623A",
"G  c #7A6B3C",
"H  c #484542",
"J  c #4C4A43",
"K  c #4F4C48",
"L  c #524D45",
"P  c #524E49",
"I  c #565144",
"U  c #5C5246",
"Y  c #55514C",
"T  c #5A554D",
"R  c #5C584D",
"E  c #555450",
"W  c #5B5751",
"Q  c #5E5A53",
"!  c #615444",
"~  c #645B46",
"^  c #61564C",
"/  c #625B4D",
"(  c #6E5C4B",
")  c #735C43",
"_  c #625C55",
"`  c #685F51",
"'  c #645F58",
"]  c #6B634A",
"[  c #756747",
"{  c #746840",
"}  c #7C6D44",
"|  c #7D744D",
" . c #656055",
".. c #6B6255",
"X. c #66625B",
"o. c #6B655C",
"O. c #6E685F",
"+. c #746B5D",
"@. c #6A6660",
"#. c #6E6963",
"$. c #736C64",
"%. c #746F69",
"&. c #767167",
"*. c #7D7465",
"=. c #76716A",
"-. c #7B756C",
";. c #7E786F",
":. c #7A7670",
">. c #7F7972",
",. c #847640",
"<. c #857847",
"1. c #8B7E45",
"2. c #81784C",
"3. c #826E5C",
"4. c #817767",
"5. c #837A6C",
"6. c #897E6E",
"7. c #837C73",
"8. c #897F71",
"9. c #847E78",
"0. c #948443",
"q. c #93854A",
"w. c #B3A658",
"e. c #88806E",
"r. c #878076",
"t. c #8B8373",
"y. c #87817A",
"u. c #8B847B",
"i. c #938776",
"p. c #918877",
"a. c #91897D",
"s. c #98907E",
"d. c #8B8680",
"f. c #8F8980",
"g. c #938C83",
"h. c #988F85",
"j. c #979087",
"k. c #9A9285",
"l. c #979088",
"z. c #9C948B",
"x. c #9F988F",
"c. c #9E9890",
"v. c #A19785",
"b. c #A39986",
"n. c #A49B8A",
"m. c #A99E8B",
"M. c #A39C92",
"N. c #ABA28E",
"B. c #A8A096",
"V. c #A7A198",
"C. c #ABA49A",
"Z. c #AFA89F",
"A. c #B2ABA2",
"S. c #B7B0A6",
"D. c #B8B1A7",
"F. c #BCB4AA",
"G. c #C0B9AE",
/* pixels */
"t t t t ; 1 a 5 5 d a 6 r r 6 : 6 a a f l 4 t t 6 4 t 1 1 2 1 1 1 3 3 ",
"t t t 6 ; * 1 : = 1 1 6 p 9 6 1 : 5 1 6 5 1 7 u 7 7 t : 4 8 9 1 9 6 6 ",
"t t t t 1 1 t a a 9 p 7 t r t 1 = r 5 3 9 4 7 p t 6 t 2 i p i i f s 6 ",
"t t t t 1 3 p i t 6 a r r 6 r = 1 s f a s 7 7 t 7 7 7 1 t 7 t t y p 6 ",
"t t t t = 3 p t r 9 p r t t t : 5 p p p p 6 7 t 7 t t 1 t t i u t s 6 ",
"i t p p 1 6 p 4 2 > r > 2 3 2 $ > r t r t 2 4 e 6 4 , $ t i i t t s t ",
"t t t s & X e f m m L x l x x 9 a m f f s a i l l m M a t - - 4 p s 6 ",
"t a t % f ;.z.C.C.C.M.M.c.n.z.c.M.M.z.M.V.C.V.C.C.C.V.B.z.g.&.t - t 6 ",
"t a l 9.Z.D.D.D.D.F.F.F.D.S.A.A.Z.Z.A.A.F.F.A.A.A.A.Z.C.C.V.V.j.O.y r ",
"= + $.z.u.>.>.y.g.k.x.M.M.M.n.c.M.c.M.M.M.M.M.M.M.M.M.M.c.z.g.u.u...# ",
"9 d U R W _ Q Q X.o.o.X.X.X.X.X.' _ Q ^ Q _ X.o.O.#.o._ ' Q P L / ! = ",
"t r 2 T Y z z Y Y z z z 0 g g H w w g g z g H K Y Q Y z J K K E P e 1 ",
"r 6 7 ^ Q W o.%.#.X.X.@.E K E Q @.@.@.@.#.Q P P ' @.Q Y Q X.Q W L t 1 ",
"t 6 3 h T #.:.=.=.#.%.=.Y Y #.#.#.%.#.@.' @.X.W E T P W Y Y Q Q i r 1 ",
"r 6 6 t Q %.=.:.:.=.=.#.Y =.=.#.@.=.@.#.#.@.$.%.-.=.:.%._ T %._ , a = ",
"r a r m $.&.-.9.y.y.=.#.=.=.#.=.$.%.:.>.:.#.' >.d.d.>.%.@.Q -.#.t r : ",
"t p 4 m ;.7.y.u.u.>.o.&.;.$.T Q ' ' @.$.%.o.o.>.r.>.7.%.Q 7.y.>.i e 1 ",
"6 t r s _ O.%.=.=.&. .X.X.K d q g x z z c Q Q X.#.=.;.-.y.u.r.u.i e 3 ",
"t t t e ..u.y.f.x.j.7.$.;.c k c z x m m k k O.$.:.u.f.c.M.f.g.f.f e 5 ",
"t t e t 7.M.A.A.Z.z.a.7.u.R c L I ~ ) Z J k O.u.;.f.z.c.C.A.C.x.! e 5 ",
"r i 2 l g.C.A.A.A.Z.z.r.y.T I ] } 2.| [ ~ L X.;.-.7.a.h.M.C.M.M.;.O 5 ",
"t p , U z.M.M.M.Z.V.a.-.O.c ~ <.0.1.} q.G ~ R ..-.5.r.k.g.M.z.z.5.. : ",
"t t - $.z.n.V.V.M.z.r.;./ R ~ S D y { w.,.Z  .%.-.;.l.l.g.z.l.z.$.% 5 ",
"i r a 8.j.C.D.Z.Z.x.5.7.o.R U j V 6 h D F | ..&.u.7.u.k.l.u.g.u.h.^   ",
"t 2 _ h.7.z.C.Z.C.a.R 5.r.K ] F S h 6 B A ] o.j.D.C.;.a.h.u.9.5.M.*.  ",
"t 4 O.c.C.u.l.n.z.g.g.u.u. .M v V u y S C 8 7.F.G.A.h.7.u.g.7.f.V.z.L ",
"t f u.z.Z.M.g.u.-.h.Z.a.$.o.U ) n N N b v ( $.j.M.h.u.#.o.-.-.-.u.k.=.",
"& ^ 8.+.*.a.a.r.5.8.5.5.5.*.+.3...*.*.*.6.i.i.5.5.r.5.8.t.6.5.5.5.e.5.",
"f s.N.N.v.v.N.N.n.k.s.m.n.v.v.h.v.v.k.n.n.n.m.N.n.n.m.m.m.b.m.m.N.N.n.",
"v t.p.t.t.t.t.e.5.6.i.i.p.t.i.i.i.t.4.+...` ..+.+.*.*.*.4.5.6.6.e.e.4.",
"t 2 4 > . . > , 1 e p 3 t t 6 6 3 6 < % & o # 4 O = > # , 2 > > 2 2 @ ",
"i 4 4 4 ; > t t r t s 2 e 4 1 > # 4 t p s 5 p s t 6 t 6 t t 4 3 t t 6 ",
"t i 7 7 ; 1 s i 7 s v 7 t s t 7 1 i i s t 2 7 t 7 3 t 6 i t t 7 i p 6 ",
"t t 6 7 ; ; i t t s f 6 t t 7 3 : 6 t s t 3 6 6 6 3 7 3 t t t t t p 6 ",
"t t 7 t ; ; 7 7 7 s j 6 t 7 6 3 2 t t s t 4 7 7 6 3 7 6 t a f t d p 6 "
};
