/* XPM */
static char *result[] = {
/* columns rows colors chars-per-pixel */
"35 35 27 1 ",
"  c #21170E",
". c #23180F",
"X c #261B12",
"o c #2A1E14",
"O c #2D2116",
"+ c #2E2219",
"@ c #322317",
"# c #33251B",
"$ c #36281D",
"% c #392B1E",
"& c #352B23",
"* c #3C2E22",
"= c #372F29",
"- c #3F3023",
"; c #3E332A",
": c #402F21",
"> c #433225",
", c #483727",
"< c #453629",
"1 c #483729",
"2 c #46382E",
"3 c #4A392B",
"4 c #503E2F",
"5 c #453A31",
"6 c #4A3C32",
"7 c #503E30",
"8 c #4E4036",
/* pixels */
"*16<22>*-****%,1>*%#**>*43:*>@o<->>",
"*1>>>>>*-%%**$,1>>##>>>>43>><+o:*>>",
"%1-**>>%-$->>#>1>*#$>>>*71:><@o*->>",
"$1>*>>-*-$>1>#>>,*$%*>>*4>>><+o*->>",
"%>>>*<>:25*8;*<>,:#$-<<*6>*>>@o>-%>",
"%>>>*>>%+Oo+o%1>>>#$*>>&33>>>#&2<;>",
"$>*>>*>*<;*2**1>>>%*>>3-71>:>@+=%&%",
"X>>>>>*>>;>2*->>>>@-;*6;4<**>@O**>*",
" %>>>>---%->%-1>>>+#$$*#11::>@>826>",
".%>>-><*-->,$-1-><#-623$*>>:*#*<%>>",
".**>>1>**:->$-1*>>$#<;2#$1>$:#*>>>>",
"X%%<>>>-->>,%>1-<>$$>*>#*3<*2$*>%>>",
"X>*>2<>>*>>>*>5;3>$*>-<$%6**5O:<>>-",
"X-=#;=%%%:>>*@*#=$O*>:1$+&O#&o>>>>>",
"o>>##$$#%>>,%*3-;>#->>1#$2>>5*11->>",
"O3<*>>-#*>*>%>6233%*>>1#$6<>2*31>>>",
"O<**-*-#**%>%->><>**->,##>>>>%31>>>",
"+<-*>-*#*>#>**>>><*%--,$#><>>$31>>%",
"O>><>--#*>+*%*1>>>:%>>1$$<>>>%31>>-",
"o>>->>-+->+$%%1>1>-%>>1$%>->>%11>>-",
"O><>->*@*>#$$*>>,>**>>1%%>->1*11-->",
"O>>>>>*@*>$$#-1>>**%*>1#*>->>%13%*-",
"O<->%>*@*>$$#*>>>*%%>>1#%,>>>%31&*-",
"+<>>*>>#*>$**$1>>%%><<3$$>>>>*33*2-",
"O1>>>>>O*5$=&$<>:*&-<26$$>*>>%<5$2;",
"#3>>>>>O+$++o&1>:**.oooo-->->%##XO+",
"*1>>>>>#*526%*>>>:*#;2=*1-->-$*6<2:",
"*<>>>>>#>2>3*>,>>**+>2>*1--><**6<3>",
"*3>>>1>$::>>**,>>:*o*:**1**:>*@,>>>",
"-3>,>>>#:>><**<>3<$o*>:*1*>>,*+1<>>",
"%3>>>>>#*>*>:$,,1,$o:>:*1*:>>$o,>>>",
"-1,>>%>$*::<::7366$o:*:*<*><<*@>>>>",
"*38126>%*>>>:$*#=*o+>->>>525>#+>>>>",
"%*&$&*##>*-1*#**$$#O-*1%OoXooXO>*>>",
"$$##$%#$>%%>-*665<*+*->*36*;5#o<->>"
};
