/* XPM */
static char *result[] = {
/* columns rows colors chars-per-pixel */
"35 35 133 2 ",
"   c #170D18",
".  c #191714",
"X  c #1D1918",
"o  c #2A1500",
"O  c #24150D",
"+  c #251A11",
"@  c #2A1E14",
"#  c #241D1A",
"$  c #2C1C1B",
"%  c #3C2307",
"&  c #2D2116",
"*  c #25221D",
"=  c #2D221A",
"-  c #352214",
";  c #3A2314",
":  c #33251B",
">  c #39271B",
",  c #36281D",
"<  c #392B1E",
"1  c #242421",
"2  c #292422",
"3  c #352B22",
"4  c #3C2E22",
"5  c #372E28",
"6  c #3F3024",
"7  c #3E3229",
"8  c #3F3732",
"9  c #45250A",
"0  c #5F2C00",
"q  c #412513",
"w  c #442914",
"e  c #4B2B14",
"r  c #462D1A",
"t  c #4C2D19",
"y  c #542F16",
"u  c #502F19",
"i  c #4D301A",
"p  c #533117",
"a  c #5B3814",
"s  c #53311A",
"d  c #5C351A",
"f  c #5B3A1C",
"g  c #61380E",
"h  c #60371C",
"j  c #643C1F",
"k  c #693B1C",
"l  c #402F22",
"z  c #433225",
"x  c #4C3625",
"c  c #443629",
"v  c #483729",
"b  c #46382D",
"n  c #4A3A2B",
"m  c #513623",
"M  c #523925",
"N  c #453930",
"B  c #4A3C32",
"V  c #513F30",
"C  c #673E20",
"Z  c #6F471F",
"A  c #73411E",
"S  c #5B412A",
"D  c #4F4136",
"F  c #674521",
"G  c #6A4222",
"H  c #6F4822",
"J  c #65472C",
"K  c #754522",
"L  c #744A25",
"P  c #7B4C26",
"I  c #734B29",
"U  c #76502D",
"Y  c #7C532A",
"T  c #775233",
"R  c #804E25",
"E  c #855426",
"W  c #8A5725",
"Q  c #85552C",
"!  c #8A572A",
"~  c #845A2D",
"^  c #8A5A2E",
"/  c #845B32",
"(  c #8E5F30",
")  c #96612B",
"_  c #9A682F",
"`  c #8C6136",
"'  c #8D613B",
"]  c #936432",
"[  c #9B6732",
"{  c #946832",
"}  c #9B6A33",
"|  c #95653B",
" . c #9B6739",
".. c #956A3D",
"X. c #9B6B3D",
"o. c #A26D34",
"O. c #A26E3E",
"+. c #A27137",
"@. c #A57438",
"#. c #AC763A",
"$. c #AE7B3B",
"%. c #B27D3E",
"&. c #A06F40",
"*. c #A47344",
"=. c #AC7645",
"-. c #A57949",
";. c #AB7B4B",
":. c #B57A46",
">. c #B37D4B",
",. c #B97C49",
"<. c #B58441",
"1. c #B68943",
"2. c #BC8A45",
"3. c #B4814E",
"4. c #B8814F",
"5. c #BF9248",
"6. c #BC8552",
"7. c #BD8955",
"8. c #BD8D58",
"9. c #C38F47",
"0. c #C0844F",
"q. c #C09146",
"w. c #C3954A",
"e. c #C89B4E",
"r. c #C38B55",
"t. c #C68E58",
"y. c #C98E58",
"u. c #C7915A",
"i. c #CB955D",
"p. c #D0975F",
"a. c #CC9760",
"s. c #CF9961",
"d. c #D39C63",
/* pixels */
"4 v B c b N z 4 6 < < z z , v v c z > , 6 6 c 6 D v 6 6 6 & & c 6 z z ",
"4 v z z z z z 4 4 < 4 < < , z v z < : , z 6 z 6 D v z z v & & 6 4 z z ",
"< v z 4 z 6 6 < 4 < z z z , c v z 6 : , r z z 6 S c 6 z v & & < 4 z z ",
", v z 4 4 z z 6 z , 6 v z > z z v < , < 6 z z < n z z z v & & < 4 z z ",
"4 c z r 4 c z l c N 4 D c < c z v 6 : < 6 z z 6 n z 6 z z : & 6 6 6 z ",
"< z z z 6 z c < & $ & = @ < v z z 6 : : 6 z c 4 n v z z z : , c z 7 c ",
": z < c z z z < c 7 4 b 4 4 v z x z : 6 6 6 n 6 D v z 6 6 : = 7 < 5 4 ",
"@ 6 z z z z < z z c c b 4 4 x z z z : 6 b 5 8 2 n v 6 6 z = & 4 3 6 4 ",
"+ , 6 c z z l 4 l 4 l v < < v z z z : < # r Q Y S 6 4 z z - 6 D b B z ",
"+ , z c z z c 4 l z l v < z n z v v @   x [ 9.9.) p z 3 4 : 4 c 6 r 6 ",
"+ < 6 z z z z z 4 4 z v , 5 c = 3 $ i ~ <.e.9.o.) %.{ r 6 : < c 6 c z ",
"+ 6 , z z c v * = 3 @ z - > x f Z { 1.w.2.%.o.o.<.<.#.E z , 6 z 6 z z ",
"@ z 6 z b c 4 T *.| U g E } #.%.#.1.%.@.@.$.<.<.o.E A A e . 6 z z z z ",
"+ 6 5 , c 1 S +.=.` *.;.) o._ _ _ o.$.q.w.1.o.E K A L L A w z z z c 6 ",
"@ z 6 : : , I ` ;.-.` 3. .0 W [ 1.w.5.$.) P P ^ [ } o.[ { F c v 6 z 6 ",
"& n c 6 6 M Y 3.d.8.8...3.X._ <.%.{ R P ! [ @.@.+.} ] Q P j v n z z 6 ",
": v 6 < z i | i.d.8.a.8.| r.R ! k k Q { +.o. .( ! P C f d s x v z z 6 ",
"& c 6 6 6 s ;.s.8.-.8.d...,.O.o L ) ) ( / Q L G f p s s y e c v r z 6 ",
"& z z v 3 f 7.i.-.8.;.u.4./ / a ^ Y H G C d y u u u u t t w v v z c 6 ",
"@ z z c 6 r 3.i.-.a.t.*.;.L =.L k h p e e t u t t t t t r - v n z c 6 ",
"& z c r c t X.i.r.y.7.-.u./ >.L 9 e w e e t u s u t r w q @ n n 4 6 6 ",
"& c z z 3 J ] 3.i.p.&.>.y.~ O.d % e e t u u t q ; - - - > : n n 4 6 6 ",
"& v 6 c = x ;.X.| &.*.8.;.P >.L o e t e q - > @ : c c c x 4 v x < 6 6 ",
"& v z c z X ' r.=.3.t.i.` / X.r r r ; > 4 b B > > c l l z 3 v n 6 c 6 ",
"& n 6 z c 6 m ] 6.r.0.=.G 3.:.q w ; & 6 7 c b : > 4 l l c < v N : c 7 ",
": n z 6 z c 6 i Q O. .Z ..,.Q O : < 4 + @ & & & 4 c z l z 3 : : & & = ",
"6 v z z z c z , M U / *.:. .i : z z < , c 7 7 4 v c 4 l l > 4 B c b 6 ",
"< v z z z z z , 6 x U / L M 3 v z 4 6 = z b z 4 v l 4 c c 4 l B c b c ",
"4 n z z z c z , z 5 = * # 3 n z z z < @ < z l 4 v l l l c 4 : v z r z ",
"6 n z x z c z : r z c v z 4 x z v v : & l z l < v 3 z z z < - n v z z ",
"< n c z z c 6 : z z < z z < v c n v : & l l l 4 v 3 z l z < @ c z z z ",
"< n z c 6 6 r , < z z c l < V n n n < @ z 4 z l v 4 z z v < : z 6 z c ",
"6 D D z c b v < 6 6 6 v 6 : 6 : 5 5 @ & z 6 z z z b b B z : = z z z z ",
"< 4 < : < 5 : : 6 6 6 v 6 : 6 < , , : & 6 6 v < & & @ @ & + & 6 6 z 6 ",
", , : : < < : : z < 4 z 6 6 n B b c 4 & 6 6 z < c B 3 7 b : & v 6 z z "
};
