/* XPM */
static char *result[] = {
/* columns rows colors chars-per-pixel */
"35 35 194 2 ",
"   c #030006",
".  c #1D000B",
"X  c #00150F",
"o  c #1C001D",
"O  c #001B16",
"+  c #001E19",
"@  c #29000D",
"#  c #22170F",
"$  c #251A12",
"%  c #2A1E14",
"&  c #321A18",
"*  c #002315",
"=  c #01241B",
"-  c #19251A",
";  c #132A1F",
":  c #2D2116",
">  c #2E231A",
",  c #27281C",
"<  c #33251A",
"1  c #3D2619",
"2  c #36291D",
"3  c #392B1E",
"4  c #3F301A",
"5  c #000022",
"6  c #000028",
"7  c #130527",
"8  c #260022",
"9  c #2A1924",
"0  c #002D23",
"q  c #0D2F23",
"w  c #003225",
"e  c #063929",
"r  c #193326",
"t  c #1B362D",
"y  c #262D24",
"u  c #342725",
"i  c #352C23",
"p  c #3C2E22",
"a  c #3C2D2C",
"s  c #2A3426",
"d  c #373626",
"f  c #3E3024",
"g  c #3E322A",
"h  c #3E3A2D",
"j  c #2E3932",
"k  c #44241A",
"l  c #442A1D",
"z  c #4A2A1D",
"x  c #5B2F1D",
"c  c #42321C",
"v  c #492521",
"b  c #422E22",
"n  c #4A2F21",
"m  c #433225",
"M  c #4A3325",
"N  c #4A3A26",
"B  c #453629",
"V  c #493729",
"C  c #45382C",
"Z  c #4A3A2B",
"A  c #533424",
"S  c #563428",
"D  c #533D2F",
"F  c #453A31",
"G  c #4A3C32",
"H  c #513E30",
"J  c #5D3F35",
"K  c #633426",
"L  c #693525",
"P  c #743826",
"I  c #204034",
"U  c #474525",
"Y  c #544724",
"T  c #4E4135",
"R  c #504330",
"E  c #6F4422",
"W  c #78432F",
"Q  c #695423",
"!  c #664432",
"~  c #6D6323",
"^  c #7C6822",
"/  c #756C49",
"(  c #9A0000",
")  c #35C14",
"_  c #8C1814",
"`  c #B50000",
"'  c #BB0000",
"]  c #BE260F",
"[  c #A82619",
"{  c #A70F25",
"}  c #8C3B26",
"|  c #8A3D2B",
" . c #943A26",
".. c #A7312D",
"X. c #BB3E25",
"o. c #C40000",
"O. c #CC0101",
"+. c #C3000C",
"@. c #D70000",
"#. c #DE0000",
"$. c #D90E05",
"%. c #C91E00",
"&. c red",
"*. c #FF1F01",
"=. c #FF0E17",
"-. c #DE2A17",
";. c #C7321F",
":. c #DA3519",
">. c #FD290D",
",. c #F62F16",
"<. c #FF3316",
"1. c #FF3519",
"2. c #FB2F2C",
"3. c #E63822",
"4. c #EC3C22",
"5. c #FF3F21",
"6. c #F93C27",
"7. c #8F4E1B",
"8. c #89711C",
"9. c #A5422B",
"0. c #B7422A",
"q. c #9A7D20",
"w. c #C35612",
"e. c #C4790F",
"r. c #DC7A03",
"t. c #E16300",
"y. c #CE462B",
"u. c #DD4227",
"i. c #D6482C",
"p. c #DD492C",
"a. c #CB502B",
"s. c #C84E30",
"d. c #E94126",
"f. c #ED4629",
"g. c #E54A2C",
"h. c #EE4C2D",
"j. c #FB4323",
"k. c #F44D2D",
"l. c #FC4C2C",
"z. c #FF512F",
"x. c #EC4F32",
"c. c #F35132",
"v. c #FF5331",
"b. c #FF732E",
"n. c #B66943",
"m. c #AB7D52",
"M. c #D07C51",
"N. c #FD6C42",
"B. c #FB774B",
"V. c #AE8E16",
"C. c #B9941A",
"Z. c #DD9606",
"A. c #CC9811",
"S. c #FF9F00",
"D. c #C5A014",
"F. c #EFB605",
"G. c #FD932C",
"H. c #FFC700",
"J. c #FDCC01",
"K. c #FFD707",
"L. c #FECB23",
"P. c #AD8356",
"I. c #9B9161",
"U. c #B59261",
"Y. c #BCB579",
"T. c #D58658",
"R. c #FFB849",
"E. c #FF9962",
"W. c #CEB879",
"Q. c #D2BB7C",
"!. c #E0A26B",
"~. c #FCA96D",
"^. c #FCAE71",
"/. c #E2B77A",
"(. c #E4BC7D",
"). c #F8B073",
"_. c #FBBB7A",
"`. c #FED246",
"'. c #FDD75A",
"]. c #DDC885",
"[. c #E4C786",
"{. c #EACE88",
"}. c #E8D68E",
"|. c #F4D38C",
" X c #E9DF94",
".X c #F7DD92",
"XX c #FEEB87",
"oX c #F4E397",
"OX c #FEEE95",
"+X c #FEED9C",
"@X c #FDF09F",
"#X c #FEF3A1",
"$X c #FEF9A6",
"%X c #FFFEA9",
/* pixels */
"p V C V C C m p p p p p f 3 B V B m 2 < p p B p D Z p m p < % m f m m ",
"p B m m m m m p p p p 3 n 2 m V B 3 < 2 m m B 3 R V m m B < % b p m m ",
"3 V f f b m m i p 2 b g 0 z A B V 3 < 2 m m m p R V b m V : % p p m m ",
"3 V m p f m m p f l q  . .= s A B p 2 3 p m m p H m m m m < % p f m m ",
"3 N m m p B m p F F i J x.i.K w A m < p p B V p Z m f m m < : p f p m ",
"3 m m m f m V 3 > % k O X.v.c...w 3 1 < p m m p G V f m m < i C m C m ",
"< B 3 m m m m 3 m g n e | l.v.l.a.f = M f m Z p R V m m m < : a 2 i 3 ",
"% p m B m m 3 m m B V h S k.c.b.5.g.x 0 Z p G g D B f p m < : p p m 3 ",
"# 3 m m m m 3 m m 3 c V 2 g.5.~.~.&.h.P + n i < V B b m m < m G C G B ",
"# 3 m B m m B 3 3 m b V ; p.1.B.#X^.*.x.W q D u 3 m B 3 p < 3 V 3 f m ",
"# p p m m B B p m 3 m V , g.l.$..X%X).<.h.! t k 2 V B 3 m < 3 B f B m ",
"$ p 3 m m m B p f m m m b h.z.@.(.%X$X_.1.u.U + m Z B 3 B < m m b m m ",
"$ m p B C B V b 4 f M d L k.z.#./.%X+X$X_.1.0.d z H i p C : m m b m m ",
"$ g i 2 g p 3 i p f M w  .z.z.@.(.%X@X@X$X_.,.y.A - < < 2 : m m m m f ",
"% m m < 2 2 2 < p p A 0 0.z.l.@.{.$X@X@X#X$X^.>.P s V m F p N B m m f ",
": C B p m f f < 3 m M r g.z.4.;.oX$X@X#X#X#X$XE.( I V B Z 3 Z V m m m ",
": V p p m p 4 < i n ; L z.v.#.T.$X@X#X@X#X+X#X+Xn.  C m f 2 Z V m m b ",
": B f f m f f < 3 A = 0.z.l.o.{.$X@X#X#X#X#X@X%XQ.@ p N m 2 C N c m p ",
": m m m m f f < m m - u.v.#.M.$X@X#X#X#X#X#X#X$X XT & N m 3 Z Z f B b ",
"% m m f m m f > A 0  .3.f.o.|.$X@X#X#X@X$X#X@X$X#X/ . N B 3 V Z B B p ",
": m B m l B f < b 0 p.3.' T.%X@X#X@X#X@XW.}.%X X{.I.. m B 3 V V p f m ",
": B m m m B 3 k 0  .z.3.' }.%X@X#X#X$X@X} P.%X].m.Y.u 1 N 2 V Z p p f ",
": B p m 3 B p k 0 } z.g.' !.$X@X#X@X@X$XU.m.$X].W.].k i N 3 Z V i b f ",
": B m B 3 m m < n 0 i.z.O.o..X$X#X'.`.OX#X#X#X$X+XB._ r B p C Z p B m ",
": V p m m m m > b j K c.k.' T.$X+X`.H.J.'.XXOX|.N.1.9.w V 3 B G 2 g g ",
"2 C m m m m m < : v + [ z.f.' /.%X'.H.L.J.J.G.=.j.s.i f m 3 2 < % : < ",
"3 B m m m m m < m Z C [ -.z.4.O.[.XXJ.K.L.G.6.v.a.0 s m f 3 p F m F b ",
"p N B m m m m < B a Y w.o.:.v.j.2.~.R.S.b.2.d.+.%.7.i f B p m C B Z B ",
"4 Z m m m B m < c 8 ~ Z.o.' @.f.:.` ..{ [ ] %.o.t.A.y p V 4 2 B m m m ",
"f Z m m m B m : Y 6 q.J.r.w.%.) C e X * e v  .e.F.J.Q 9 m 3 < V m m m ",
"p V B m m B p c : Y F.K.J.A.E d B V l 1 M i s U ^ V.Q u V 3 % m m B m ",
"p V m B p b m c 7 ^ D.C.8.U I D Z Z < : m l b 9 7 5 m B m 3 < m f m B ",
"p Z T V C G m 2 b f 7 7 5 o m < i p % : m p B m N C C G m 2 < m m m m ",
"3 f i < i p < < m p i V c c p p i 2 < : m p B p < : % % % $ % b b m f ",
"2 2 < 2 2 3 < 2 m p p B m p G G Z C 3 : p b m p V G i m F < % B m m m "
};
