/* XPM */
static char *_625571396605[] = {
/* columns rows colors chars-per-pixel */
"35 35 110 2 ",
"   c #030C25",
".  c #070C2A",
"X  c #0B132D",
"o  c #0D182E",
"O  c #0D1633",
"+  c #0E1A32",
"@  c #101733",
"#  c #121A35",
"$  c #131C3A",
"%  c #181F39",
"&  c #152337",
"*  c #16213B",
"=  c #19233D",
"-  c #1B2A3D",
";  c #1C2543",
":  c #1D2A44",
">  c #1F264A",
",  c #1E2A49",
"<  c #1F3343",
"1  c #202745",
"2  c #212B45",
"3  c #232D4B",
"4  c #292F4F",
"5  c #243446",
"6  c #253847",
"7  c #26334D",
"8  c #29354D",
"9  c #263A4D",
"0  c #2A3A4E",
"q  c #252D51",
"w  c #2A2E51",
"e  c #263451",
"r  c #2A3553",
"t  c #253951",
"y  c #2C3A54",
"u  c #273758",
"i  c #2C365B",
"p  c #2E3A5A",
"a  c #313C56",
"s  c #31365C",
"d  c #313C5D",
"f  c #383C5F",
"g  c #2F3D61",
"h  c #323E62",
"j  c #393F61",
"k  c #2A414F",
"l  c #264051",
"z  c #2C4254",
"x  c #2D4359",
"c  c #314256",
"v  c #33435D",
"b  c #334A5C",
"n  c #354364",
"m  c #394464",
"M  c #364A63",
"N  c #3A4B65",
"B  c #364469",
"V  c #39456B",
"C  c #374A68",
"Z  c #3B4A6C",
"A  c #375164",
"S  c #3C5165",
"D  c #3D526B",
"F  c #3C4370",
"G  c #3D4B73",
"H  c #3D4C78",
"J  c #3D5070",
"K  c #414C6C",
"L  c #44526E",
"P  c #414D74",
"I  c #404E79",
"U  c #435274",
"Y  c #495376",
"T  c #415A70",
"R  c #4A5973",
"E  c #44537B",
"W  c #4A567D",
"Q  c #4B597D",
"!  c #525F7F",
"~  c #49607F",
"^  c #54667E",
"/  c #475681",
"(  c #485782",
")  c #455880",
"_  c #4C5B84",
"`  c #525E84",
"'  c #525F8B",
"]  c #496183",
"[  c #4F608C",
"{  c #526384",
"}  c #596484",
"|  c #53658A",
" . c #596688",
".. c #5B698C",
"X. c #526491",
"o. c #596794",
"O. c #566894",
"+. c #5B6C96",
"@. c #53669E",
"#. c #5B6C9C",
"$. c #5F7396",
"%. c #62768F",
"&. c #667497",
"*. c #64739B",
"=. c #6678A8",
"-. c #6A7DAB",
";. c #6F84B3",
":. c #7183B2",
">. c #7A8CBB",
",. c #7886A9",
/* pixels */
"O 7 / ..W U Z P B O O h ! Y $ r :.+.Q r + { _ 3 3 O O V n d X   # 3 , ",
"= U d h Z Z Z Z Z 3 3 V v f ; r Z n v i B [ X.I U 2 i =.+.&.n # @.>.#.",
"n n p h p n n B V i = i b n $ 2 f p d w G J B i f - , G h G e r #.E E ",
"; U n d u p h d j y 3 a v n q y N n Z e F E p p 3 = 3 V B G : n B n h ",
"O g G C V n g p p i $ d c n 3 = x A r > B V p n :   * B V d & C V h a ",
"$ u b C G V Z B h y @ B U _ 3 p O.o._ i , D C m 7 o u V r u & V V d y ",
"q h Z C V Z p n Z m e Q M m 9 d m n G n O : b - 3 s & 8 + $ X a d 8 y ",
"; g G B n B h h V v e G h m 8 y H _ d u h , . g s = # E ` p o < z 6 = ",
"* 7 H / V n d h G n 2 E p m 5 v n V h p K n $ E f : : Z M 8   = U Q 3 ",
"c t B I E B p p n x + Y J G : n d g h b V h > e y 5 O - v K V e q e $ ",
"0 N N M m v Z m N M & h N y 2 m v c p x v m q , n y @ P $.~ | Q G Z 7 ",
"+ : t 0 7 9 e 8 7 , y q 3 e @ 1 S T R M n M ; : y ; r *.n n e h M B r ",
"m U G V j V b O , _ E G h U s 3 U U P B i s ; p B e Z _ g n V U s V r ",
"d v z c N m p $ r y 9 9 y y % ; e i p h p 3 , 2 ; * $ G n n B v n p r ",
"  $ n d $ & Z L B Z Q Q m P u 8  .U Q Q U K L K P m ; D V n g n B y r ",
"X G E P 3 j Q Z o.:.,.*.Z Z N B m d n n n h s n c 7 r E V n n C Z M p ",
"* ( G L - B G -.X.P G F h c v i r b M M M v m M y + # 7 y b v v c v q ",
"; E B n 6 r V B n n h G Z b v ; e | Q C e G _ E B x ; , Q L R ! Y n p ",
"p E h K & 3 h n Z M n h n v f 2 9 m n v 8 N 9 y b N 0 ' / ( E j B m n ",
"r x h B - 2 n V n V V h d y d w 2 3 - , y m p e y : n J g U G i c b p ",
"3 a c c e # r U } G Z V j v b y Z m v Y Z Z Z Z V 3 ; B n Z m Z N c s ",
"q 3 b b & > E L G B B G n M n 3 s y v n f B d p m a ; m n n m n v a p ",
", e Z Z i r V r h h v Z N v c 3 $ a m h h n m B N c & V p a x g d d v ",
"# m B p n * 9 z p u 9 x z z 2 ; : v v B n B m B v z X ; L N f y y y 3 ",
"7 Z V G n ; ; y e e p 7 ; s h 3 y _ n B V B n G _ Z o n W ` Z Z M n d ",
", e B n u 7 j i p p h i p h r 8 5 X.V B n V n h P v y U u d M p h p p ",
"; * M x 8 : r y 9 l l 5 1 x b 0 5 O./ h V ) V B V p y G g B m h B n j ",
"O - L N b # U ^ | ] &.{ I Z A - o ;.@.H G H G n B f # y A Z Z Z M G h ",
"3 Z j j B B *.&.>.-.o.o.G Z Z g X B Z _ h n G H m e   o t z 5 - a v m ",
"r ; r h % K g j g n n i h h N 9 o c N Z Z I H G p e & B V P n ; K G K ",
"i y h Z ; B B n B m n n p B m 3 : Z h n h h n d p y : f a h a 2 d | V ",
"; d G h 3 h G v n s n V s n v e * m h h P V G B Z 9 ; f v n p 5 s Z v ",
"2 v m d r n G B c n B Z Z v D i 1 b v E ( Z G Z b - @ m m Z b 5 f r j ",
"r j N b p m Z B M Z Z Z D D _ ; - D Z D n n n m V y # v m b c - m b h ",
"y ; d m ; & 8 0 p 0 3 3 z y , o # e n G B d p p r = 1 M b b 8 # m M M "
};
